<svg width="31" height="19" viewBox="0 0 31 19" fill="none" xmlns="http://www.w3.org/2000/svg">
    <path fill-rule="evenodd" clip-rule="evenodd" d="M15.95 5.528 23.955.337c.693-.45 1.816-.45 2.509 0 .693.45.693 1.178 0 1.627l-8.782 5.695c-.482.313-1.172.408-1.78.285-.581.094-1.22-.006-1.674-.3L5.505 1.987c-.688-.447-.688-1.17 0-1.617.688-.446 1.804-.446 2.492 0l7.953 5.158zm-.018 10.07 10.915-7.137c.945-.618 2.477-.618 3.422 0 .944.617.944 1.619 0 2.237l-11.975 7.83c-.657.43-1.599.561-2.429.393-.791.128-1.663-.01-2.282-.414L1.69 10.73c-.938-.614-.938-1.609 0-2.222.938-.614 2.46-.614 3.398 0l10.845 7.091z" fill="#fff"/>
</svg>
