<svg width="60" height="60" viewBox="0 0 60 60" fill="none" xmlns="http://www.w3.org/2000/svg">
    <path d="M30.446 28.354c5.261 0 9.542-4.281 9.542-9.543 0-5.26-4.28-9.54-9.542-9.54-5.26 0-9.539 4.28-9.539 9.54 0 5.262 4.28 9.543 9.54 9.543z" fill="#F9EFE3"/>
    <path d="M37.404 26.788a10.598 10.598 0 0 1-7.031 2.67c-2.67 0-5.18-.995-7.05-2.624-.017.01-.176.025-.194.033-3.083 1.459-5.077 3.978-5.077 7.095v17.159H42.35v-17.16c0-3.106-1.807-5.715-4.945-7.173z" fill="#B0E0D4"/>
    <path d="M12.53 32.833v8.349H2.59v-9.81c0-1.808 1.084-3.144 2.824-3.968 1.137.942 2.694 1.51 4.282 1.51a6.662 6.662 0 0 0 4.03-1.356l.797.56c-1.706 1.774-1.994 4.582-1.994 4.715zM9.796 27.81a5.465 5.465 0 0 1-5.457-5.46c0-3.01 2.448-5.46 5.457-5.46a5.468 5.468 0 0 1 5.463 5.46c0 3.01-2.45 5.46-5.463 5.46zM45.949 28.273l.873-.56a6.613 6.613 0 0 0 4.007 1.354 6.696 6.696 0 0 0 4.242-1.51c1.74.826 2.738 2.16 2.738 3.968v9.657h-9.938v-8.195c0-.133-.215-2.942-1.922-4.714zm-.64-5.77c0-3.011 2.451-5.46 5.463-5.46 3.01 0 5.457 2.449 5.457 5.46 0 3.01-2.448 5.46-5.457 5.46a5.468 5.468 0 0 1-5.463-5.46z" fill="#E0F1F8"/>
    <path d="M30.233 30.655c-6.477 0-11.748-5.271-11.748-11.751 0-6.478 5.271-11.748 11.748-11.748 6.479 0 11.751 5.27 11.751 11.748 0 6.48-5.272 11.751-11.75 11.751zm0-20.186c-4.651 0-8.435 3.784-8.435 8.435 0 4.654 3.784 8.438 8.435 8.438 4.653 0 8.438-3.784 8.438-8.438 0-4.651-3.786-8.435-8.438-8.435z" fill="#454B53"/>
    <path d="M42.752 52.375a1.657 1.657 0 0 1-1.657-1.657V34.053c0-2.713-1.545-4.915-4.35-6.197a1.657 1.657 0 0 1 1.378-3.013c3.995 1.827 6.285 5.184 6.285 9.211v16.664c0 .915-.741 1.657-1.656 1.657zM17.88 52.376a1.657 1.657 0 0 1-1.658-1.657V34.054c0-3.96 2.203-7.274 6.045-9.092a1.656 1.656 0 1 1 1.417 2.995c-2.714 1.284-4.148 3.392-4.148 6.097v16.664c0 .916-.742 1.658-1.657 1.658zM9.791 30.065c-4.226 0-7.666-3.44-7.666-7.67 0-4.228 3.44-7.668 7.666-7.668 4.23 0 7.672 3.44 7.672 7.669 0 4.228-3.442 7.669-7.672 7.669zm0-12.025a4.36 4.36 0 0 0-4.353 4.355 4.359 4.359 0 0 0 4.353 4.355 4.361 4.361 0 0 0 4.358-4.355 4.361 4.361 0 0 0-4.358-4.355z" fill="#454B53"/>
    <path d="M2.434 42.748A1.657 1.657 0 0 1 .777 41.09v-9.674c0-2.658 1.381-4.777 3.888-5.965a1.657 1.657 0 0 1 1.419 2.994c-1.341.636-1.993 1.608-1.993 2.971v9.674c0 .915-.742 1.657-1.657 1.657zM50.739 30.065c-4.228 0-7.669-3.44-7.669-7.67 0-4.228 3.44-7.668 7.669-7.668 4.228 0 7.668 3.44 7.668 7.669 0 4.228-3.44 7.669-7.668 7.669zm0-12.025a4.36 4.36 0 0 0-4.355 4.355 4.36 4.36 0 0 0 4.355 4.355 4.36 4.36 0 0 0 4.354-4.355 4.36 4.36 0 0 0-4.354-4.355z" fill="#454B53"/>
    <path d="M58.193 42.748a1.657 1.657 0 0 1-1.656-1.657v-9.673c0-1.391-.677-2.377-2.072-3.016a1.656 1.656 0 1 1 1.38-3.012c2.582 1.183 4.005 3.324 4.005 6.028v9.673c0 .915-.742 1.657-1.657 1.657z" fill="#454B53"/>
</svg>
