<svg width="161" height="155" viewBox="0 0 161 155" fill="none" xmlns="http://www.w3.org/2000/svg">
    <path d="M58.144 18.634c-4.968-5.512-6.359-9.284-15.202-15.57-9.836 0-27.82 17.408-21.76 26.692 11.03 12.283 53.754 13.54 59.417 12.67.696-1.064-18.977-19.633-22.455-23.792z" fill="#FFCF48"/>
    <path d="M53.077 16.797C48.705 11.477 47.414 7.899 39.365 2c-8.843 0-25.038 16.634-19.573 25.435 9.936 11.702 48.388 12.96 53.455 12.09.695-1.065-17.09-18.763-20.17-22.728z" fill="#FFBC33"/>
    <path d="M117.164 3.064c-8.843 6.19-10.334 9.961-15.202 15.57-3.478 4.16-23.25 22.825-22.356 23.888 5.564.967 48.388-.386 59.317-12.669 5.962-9.38-11.923-26.692-21.759-26.789z" fill="#FFCF48"/>
    <path d="M58.144 18.634c-4.968-5.512-6.359-9.284-15.202-15.57-9.836 0-27.82 17.408-21.76 26.692 11.03 12.283 53.754 13.54 59.417 12.67.696-1.064-18.977-19.633-22.455-23.792z" stroke="#000" stroke-width="6" stroke-miterlimit="10"/>
    <path d="M117.164 3.064c-8.843 6.19-10.334 9.961-15.202 15.57-3.478 4.16-23.25 22.825-22.356 23.888 5.564.967 48.388-.386 59.317-12.669 5.962-9.38-11.923-26.692-21.759-26.789z" stroke="#000" stroke-width="6" stroke-miterlimit="10"/>
    <path d="M139.122 52.387H20.885c-6.558 0-11.923 5.222-11.923 11.605v76.403c0 6.383 5.365 11.605 11.923 11.605h118.237c6.558 0 11.923-5.222 11.923-11.605V63.992c0-6.383-5.365-11.605-11.923-11.605z" fill="#FF563B"/>
    <path d="M148.163 69.795H22.971c0 .29-.1.484-.1.774v68.182c0 5.706 4.67 10.348 10.533 10.348H137.73c9.439.677 10.532-3.772 10.532-10.348V70.569c0-.29-.1-.484-.1-.774z" fill="#FF6E50"/>
    <path d="M139.122 52.387H20.885c-6.558 0-11.923 5.222-11.923 11.605v76.403c0 6.383 5.365 11.605 11.923 11.605h118.237c6.558 0 11.923-5.222 11.923-11.605V63.992c0-6.383-5.365-11.605-11.923-11.605z" stroke="#000" stroke-width="6" stroke-miterlimit="10"/>
    <path d="M94.41 63.025H65.596V152H94.41V63.025zM89.442 23.373H70.564c-2.782 0-4.968 2.128-4.968 4.836V44.65c0 2.708 2.186 4.836 4.968 4.836h18.878c2.782 0 4.968-2.128 4.968-4.836V28.21c0-2.709-2.186-4.837-4.968-4.837z" fill="#FFCF48"/>
    <path d="M94.41 63.025H65.596V152H94.41V63.025zM89.442 23.373H70.564c-2.782 0-4.968 2.128-4.968 4.836V44.65c0 2.708 2.186 4.836 4.968 4.836h18.878c2.782 0 4.968-2.128 4.968-4.836V28.21c0-2.709-2.186-4.837-4.968-4.837z" stroke="#000" stroke-width="6" stroke-miterlimit="10"/>
    <path fill-rule="evenodd" clip-rule="evenodd" d="M3 66.894v-13.54c0-6.963 5.365-12.572 11.923-12.572h131.154c6.558 0 11.923 5.609 11.923 12.572v13.54H3z" fill="#FF563B" stroke="#000" stroke-width="6" stroke-miterlimit="10"/>
    <path fill-rule="evenodd" clip-rule="evenodd" d="M22.872 63.799V53.354c0-5.32 4.57-9.671 10.134-9.671h111.978c6.16-.484 10.035 4.545 10.135 9.67V63.8H22.872z" fill="#FF6E50"/>
</svg>
