<svg width="57" height="60" viewBox="0 0 57 60" fill="none" xmlns="http://www.w3.org/2000/svg">
    <path d="M35.235 8.307a.722.722 0 0 1-.289-.06.709.709 0 0 1-.368-.939L37.64.425a.722.722 0 0 1 1.185-.197l3.12 3.336a.707.707 0 0 1-.04 1.006.723.723 0 0 1-1.015-.039l-2.376-2.54-2.62 5.89a.72.72 0 0 1-.659.426zM50.003 21.72H7.02a.715.715 0 0 1-.719-.712v-6.45c0-.392.322-.711.719-.711h42.984c.397 0 .719.319.719.712v6.449a.715.715 0 0 1-.719.711zM7.738 20.295h41.546V15.27H7.738v5.025zM30.465 60H.505V30.33H56.517V60H30.465z" fill="#415A6B"/>
    <path d="M2.46 33.073h54.056V30.33H.505V60H2.46V33.073z" fill="#344C59"/>
    <path d="M50.37 1.23c1.33 1.315.83 3.31.902 5.87-2.584-.074-4.597.42-5.925-.896-.735-.726-.768-1.872-.073-2.56.626-.62 1.273-.604 2.25-.256-.35-.968-.367-1.609.26-2.23.695-.689 1.852-.656 2.586.072z" fill="#EF3E5C"/>
    <path d="M50.37 1.23c-.734-.728-1.89-.76-2.586-.072-.33.327-.48.66-.499 1.041.686-.363 1.58-.237 2.186.364 1.088 1.076.951 2.607.905 4.53.29-.003.59-.002.896.006-.073-2.56.427-4.554-.902-5.87z" fill="#DD2C52"/>
    <path d="M35.262 5.286a2.562 2.562 0 0 1 .004 3.648 2.622 2.622 0 0 1-3.684.005 2.563 2.563 0 0 1-.006-3.648 2.624 2.624 0 0 1 3.686-.005z" fill="#415A6B"/>
    <path d="M33.18 9.466a2.563 2.563 0 0 1-.005-3.648 2.61 2.61 0 0 1 1.822-.758 2.624 2.624 0 0 0-3.42.23 2.563 2.563 0 0 0 .005 3.65c.515.508 1.19.758 1.863.752a2.615 2.615 0 0 1-.264-.226z" fill="#344C59"/>
    <path d="M26.076 3.643c.696.689.662 1.835-.072 2.56-1.328 1.318-3.342.822-5.927.895.074-2.56-.425-4.553.904-5.868.734-.728 1.89-.76 2.585-.073.627.62.61 1.261.259 2.23.977-.348 1.624-.365 2.251.256z" fill="#EF3E5C"/>
    <path d="M21.988 2.586c.574-.57 1.407-.711 2.075-.416-.024-.37-.176-.694-.497-1.013-.694-.687-1.851-.655-2.584.073-1.33 1.315-.831 3.308-.905 5.868.345-.01.68-.01 1.004-.004-.046-1.913-.177-3.436.907-4.508z" fill="#DD2C52"/>
    <path d="M8.595 1.507C10.46 3.355 9.759 6.156 9.863 9.75c-3.63-.103-6.455.59-8.32-1.257-1.03-1.02-1.076-2.63-.104-3.594.883-.872 1.79-.847 3.162-.36-.491-1.36-.517-2.258.364-3.13.975-.967 2.6-.92 3.63.1z" fill="#EF3E5C"/>
    <path d="M8.595 1.507c-1.03-1.019-2.656-1.066-3.63-.1-.594.589-.775 1.189-.68 1.933.023-.024.044-.049.069-.073.975-.967 2.6-.92 3.63.1 1.528 1.513 1.334 3.667 1.27 6.372.2 0 .403.004.608.01-.103-3.593.598-6.394-1.267-8.242z" fill="#DD2C52"/>
    <path d="M56.516 20.011v10.32H.505V20.01h56.011z" fill="#F78F4B"/>
    <path d="M2.46 22.014h54.056V20.01H.506v10.32h1.953v-8.317z" fill="#E2783D"/>
    <path d="M42.187 53.551c5.036 0 9.119-4.043 9.119-9.03 0-4.987-4.083-9.03-9.119-9.03-5.035 0-9.118 4.043-9.118 9.03 0 4.987 4.083 9.03 9.118 9.03z" fill="#EF3E5C"/>
    <path d="M33.933 46.372c0-4.987 4.082-9.03 9.118-9.03 3.3 0 6.19 1.737 7.791 4.338-1.203-3.594-4.622-6.188-8.654-6.188-5.036 0-9.119 4.043-9.119 9.03 0 1.718.485 3.324 1.327 4.692a8.93 8.93 0 0 1-.463-2.842z" fill="#DD2C52"/>
    <path d="M26.558 49.68h-2.605v2.581h2.605v-2.58zM26.558 45.811h-2.605v2.58h2.605v-2.58zM26.558 41.942h-2.605v2.58h2.605v-2.58zM26.558 38.071h-2.605v2.58h2.605v-2.58zM22.649 49.68h-5.21v2.581h5.21v-2.58zM22.649 45.811h-2.605v2.58h2.605v-2.58zM22.649 41.942h-5.21v2.58h5.21v-2.58zM22.649 38.071h-2.605v2.58h2.605v-2.58zM18.742 45.811h-2.605v2.58h2.605v-2.58zM18.742 38.071h-2.605v2.58h2.605v-2.58zM16.137 49.68h-2.604v2.581h2.604v-2.58zM16.137 41.942h-2.604v2.58h2.604v-2.58zM14.835 45.811H9.624v2.58h5.21v-2.58zM14.835 38.071H9.624v2.58h5.21v-2.58zM12.229 49.68H9.623v2.581h2.604v-2.58zM12.229 41.942H9.623v2.58h2.604v-2.58zM8.321 49.68H5.717v2.581H8.32v-2.58zM8.321 45.811H5.717v2.58H8.32v-2.58zM8.321 41.942H5.717v2.58H8.32v-2.58zM8.321 38.071H5.717v2.58H8.32v-2.58z" fill="#fff"/>
    <path d="M51.305 25.884H5.717a.715.715 0 0 1-.72-.712c0-.393.323-.712.72-.712h45.588c.398 0 .72.319.72.712a.715.715 0 0 1-.72.712z" fill="#E2783D"/>
    <path d="M44.794 27.174a.715.715 0 0 1-.72-.712v-2.58c0-.393.323-.712.72-.712.397 0 .718.32.718.712v2.58a.715.715 0 0 1-.718.712z" fill="#E2783D"/>
    <path d="M50.003 42.654H38.28a.715.715 0 0 1-.718-.712c0-.393.321-.712.718-.712h11.723c.397 0 .719.319.719.712a.715.715 0 0 1-.719.712zM50.866 46.608h-15.63a.715.715 0 0 1-.719-.711c0-.394.322-.712.719-.712h15.63c.397 0 .718.318.718.712a.715.715 0 0 1-.718.711z" fill="#fff"/>
    <path d="M44.794 53.551c-.397 0-.72-.34-.72-.76V36.25c0-.419.323-.76.72-.76.397 0 .718.341.718.76v16.54c0 .42-.321.76-.718.76z" fill="#fff"/>
    <path d="M30.465 39.06a.715.715 0 0 1-.719-.713v-6.45c0-.393.322-.712.719-.712.397 0 .718.319.718.712v6.45a.715.715 0 0 1-.718.712z" fill="#344C59"/>
    <path d="M42.187 54.263c-5.423 0-9.837-4.37-9.837-9.742 0-5.371 4.413-9.742 9.837-9.742 5.425 0 9.837 4.37 9.837 9.742 0 5.372-4.413 9.742-9.837 9.742zm0-18.06c-4.631 0-8.399 3.732-8.399 8.318 0 4.587 3.768 8.318 8.4 8.318 4.63 0 8.399-3.731 8.399-8.318 0-4.586-3.768-8.318-8.4-8.318z" fill="#fff"/>
</svg>
