<svg width="60" height="60" viewBox="0 0 60 60" fill="none" xmlns="http://www.w3.org/2000/svg">
    <g clip-path="url(#zespozslna)">
        <path d="M30 60c16.569 0 30-13.431 30-30C60 13.431 46.569 0 30 0 13.431 0 0 13.431 0 30c0 16.569 13.431 30 30 30z" fill="#3DB9E3"/>
        <path d="M55 11H7a2 2 0 0 0-2 2v33a2 2 0 0 0 2 2h48a2 2 0 0 0 2-2V13a2 2 0 0 0-2-2z" fill="#343840"/>
        <path d="M11 15 47 0l5 15H11z" fill="#2CA651"/>
        <path d="M52 14H7a2 2 0 0 0-2 2v33a2 2 0 0 0 2 2h45a2 2 0 0 0 2-2V16a2 2 0 0 0-2-2z" fill="#464C59"/>
        <path d="M7 17h2" stroke="#1E3064" stroke-width="1.75" stroke-miterlimit="10"/>
        <path d="M7 17h2" stroke="#FFFB01" stroke-miterlimit="10"/>
        <path d="M11 17h2" stroke="#1E3064" stroke-width="1.75" stroke-miterlimit="10"/>
        <path d="M11 17h2" stroke="#FFFB01" stroke-miterlimit="10"/>
        <path d="M15 17h2" stroke="#1E3064" stroke-width="1.75" stroke-miterlimit="10"/>
        <path d="M15 17h2" stroke="#FFFB01" stroke-miterlimit="10"/>
        <path d="M19 17h2" stroke="#1E3064" stroke-width="1.75" stroke-miterlimit="10"/>
        <path d="M19 17h2" stroke="#FFFB01" stroke-miterlimit="10"/>
        <path d="M23 17h2" stroke="#1E3064" stroke-width="1.75" stroke-miterlimit="10"/>
        <path d="M23 17h2" stroke="#FFFB01" stroke-miterlimit="10"/>
        <path d="M27 17h2" stroke="#1E3064" stroke-width="1.75" stroke-miterlimit="10"/>
        <path d="M27 17h2" stroke="#FFFB01" stroke-miterlimit="10"/>
        <path d="M31 17h2" stroke="#1E3064" stroke-width="1.75" stroke-miterlimit="10"/>
        <path d="M31 17h2" stroke="#FFFB01" stroke-miterlimit="10"/>
        <path d="M35 17h2" stroke="#1E3064" stroke-width="1.75" stroke-miterlimit="10"/>
        <path d="M35 17h2" stroke="#FFFB01" stroke-miterlimit="10"/>
        <path d="M39 17h2" stroke="#1E3064" stroke-width="1.75" stroke-miterlimit="10"/>
        <path d="M39 17h2" stroke="#FFFB01" stroke-miterlimit="10"/>
        <path d="M43 17h2" stroke="#1E3064" stroke-width="1.75" stroke-miterlimit="10"/>
        <path d="M43 17h2" stroke="#FFFB01" stroke-miterlimit="10"/>
        <path d="M47 17h2" stroke="#1E3064" stroke-width="1.75" stroke-miterlimit="10"/>
        <path d="M47 17h2" stroke="#FFFB01" stroke-miterlimit="10"/>
        <path d="M51 17h2" stroke="#1E3064" stroke-width="1.75" stroke-miterlimit="10"/>
        <path d="M51 17h2" stroke="#FFFB01" stroke-miterlimit="10"/>
        <path d="M7 48h2" stroke="#1E3064" stroke-width="1.75" stroke-miterlimit="10"/>
        <path d="M7 48h2" stroke="#FFFB01" stroke-miterlimit="10"/>
        <path d="M11 48h2" stroke="#1E3064" stroke-width="1.75" stroke-miterlimit="10"/>
        <path d="M11 48h2" stroke="#FFFB01" stroke-miterlimit="10"/>
        <path d="M15 48h2" stroke="#1E3064" stroke-width="1.75" stroke-miterlimit="10"/>
        <path d="M15 48h2" stroke="#FFFB01" stroke-miterlimit="10"/>
        <path d="M19 48h2" stroke="#1E3064" stroke-width="1.75" stroke-miterlimit="10"/>
        <path d="M19 48h2" stroke="#FFFB01" stroke-miterlimit="10"/>
        <path d="M23 48h2" stroke="#1E3064" stroke-width="1.75" stroke-miterlimit="10"/>
        <path d="M23 48h2" stroke="#FFFB01" stroke-miterlimit="10"/>
        <path d="M27 48h2" stroke="#1E3064" stroke-width="1.75" stroke-miterlimit="10"/>
        <path d="M27 48h2" stroke="#FFFB01" stroke-miterlimit="10"/>
        <path d="M31 48h2" stroke="#1E3064" stroke-width="1.75" stroke-miterlimit="10"/>
        <path d="M31 48h2" stroke="#FFFB01" stroke-miterlimit="10"/>
        <path d="M35 48h2" stroke="#1E3064" stroke-width="1.75" stroke-miterlimit="10"/>
        <path d="M35 48h2" stroke="#FFFB01" stroke-miterlimit="10"/>
        <path d="M39 48h2" stroke="#1E3064" stroke-width="1.75" stroke-miterlimit="10"/>
        <path d="M39 48h2" stroke="#FFFB01" stroke-miterlimit="10"/>
        <path d="M43 48h2" stroke="#1E3064" stroke-width="1.75" stroke-miterlimit="10"/>
        <path d="M43 48h2" stroke="#FFFB01" stroke-miterlimit="10"/>
        <path d="M47 48h2" stroke="#1E3064" stroke-width="1.75" stroke-miterlimit="10"/>
        <path d="M47 48h2" stroke="#FFFB01" stroke-miterlimit="10"/>
        <path d="M51 48h2" stroke="#1E3064" stroke-width="1.75" stroke-miterlimit="10"/>
        <path d="M51 48h2" stroke="#FFFB01" stroke-miterlimit="10"/>
        <path d="M43.5 10a2.5 2.5 0 1 0 0-5 2.5 2.5 0 0 0 0 5z" fill="#4DB678"/>
        <path d="M43 28h11v10H43a1 1 0 0 1-1-1v-8a1 1 0 0 1 1-1z" fill="#343840"/>
        <path d="M45.5 34.5a1.5 1.5 0 1 0 0-3 1.5 1.5 0 0 0 0 3zM50.5 35.5a2.5 2.5 0 1 0 0-5 2.5 2.5 0 0 0 0 5z" fill="#8D8D93"/>
        <path d="M50.5 34a1 1 0 1 0 0-2 1 1 0 0 0 0 2z" fill="#DEDCE0"/>
    </g>
    <defs>
        <clipPath id="zespozslna">
            <path fill="#fff" d="M0 0h60v60H0z"/>
        </clipPath>
    </defs>
</svg>
